<?xml version="1.0" ?><svg fill="none" height="24" viewBox="0 0 24 24" width="24" xmlns="http://www.w3.org/2000/svg"><path d="M5 9C5 7.34315 6.34315 6 8 6H14C15.6569 6 17 7.34315 17 9V16.942C17 18.3843 15.5197 19.3524 14.1984 18.7743L12.2025 17.9011C11.4359 17.5657 10.5641 17.5657 9.79754 17.9011L7.80164 18.7743C6.48026 19.3524 5 18.3843 5 16.942V9Z" stroke="#6B7B94" stroke-linecap="round" stroke-linejoin="round"/><path d="M9 4H15C17.2091 4 19 5.79086 19 8V16" stroke="#6B7B94" stroke-linecap="round" stroke-linejoin="round"/><path d="M8 12.4615L9.65202 13.7323C9.85109 13.8855 10.1328 13.8672 10.3104 13.6896L14 10" stroke="#6B7B94" stroke-linecap="round" stroke-linejoin="round"/></svg>