<?xml version="1.0" ?><!DOCTYPE svg  PUBLIC '-//W3C//DTD SVG 1.1//EN'  'http://www.w3.org/Graphics/SVG/1.1/DTD/svg11.dtd'><svg height="43.3492mm" style="shape-rendering:geometricPrecision; text-rendering:geometricPrecision; image-rendering:optimizeQuality; fill-rule:evenodd; clip-rule:evenodd" version="1.1" viewBox="0 0 4335 4335" width="43.3492mm" xml:space="preserve" xmlns="http://www.w3.org/2000/svg" xmlns:xlink="http://www.w3.org/1999/xlink"><defs><style type="text/css">
   <![CDATA[
    .fil0 {fill:#2B2A29}
   ]]>
  </style></defs><g id="Layer_x0020_1"><path class="fil0" d="M671 58l1504 0 0 0 9 0 0 0 1504 0c328,0 596,268 596,596l0 3032c0,328 -268,596 -596,596l-1504 0 0 0 -9 0 0 0 -1504 0c-328,0 -596,-268 -596,-596l0 -3032c0,-328 268,-596 596,-596zm70 1352l1 -337c0,-2 0,-5 0,-7l0 -80c0,-57 -46,-102 -102,-102l0 0c-57,0 -102,46 -102,102l-1 410 0 0c0,43 0,79 0,117l0 0c0,57 46,102 102,102 264,0 528,-2 792,-2 56,0 70,33 72,53l0 58 0 1 0 0c0,21 18,37 38,37 8,0 16,-3 22,-7 2,-1 4,-2 5,-3 37,-26 252,-205 252,-205 0,0 28,-16 25,-39 3,-23 -25,-39 -25,-39 0,0 -215,-178 -252,-205 -2,-2 -4,-2 -5,-3 -6,-4 -14,-7 -22,-7 -21,0 -38,17 -38,37l0 0 0 1 0 64 0 0c-2,19 -14,51 -64,54 -231,0 -464,1 -696,1l0 0zm900 -655l-1 337c0,2 0,5 0,7l0 80c0,57 46,102 102,102l0 0c57,0 102,-46 102,-102l1 -410 0 0c0,-43 0,-79 0,-117l0 0c0,-57 -46,-102 -102,-102 -264,0 -528,2 -792,2 -56,0 -70,-33 -72,-53l0 -58 0 -1 0 0c0,-21 -18,-37 -38,-37 -8,0 -16,3 -22,7 -2,1 -4,2 -5,3 -37,26 -252,205 -252,205 0,0 -28,16 -25,39 -3,23 25,39 25,39 0,0 215,178 252,205 2,2 4,2 5,3 6,4 14,7 22,7 21,0 38,-17 38,-37l0 0 0 -1 0 -64 0 0c2,-19 14,-51 64,-54 231,0 464,-1 696,-1l0 0zm1893 1167l-1427 0c-49,0 -86,0 -86,67l0 11 -2 0 0 1226c0,147 96,235 232,247 0,118 0,237 0,356 0,69 1,102 34,140 121,136 307,33 307,-96l0 -399 217 0 0 0 9 0 0 0 217 0 0 399c0,129 186,233 307,96 34,-38 35,-71 34,-140 0,-118 0,-237 0,-356 136,-11 232,-100 232,-247l0 -1226 -2 0 0 -11c0,-58 -28,-67 -74,-67zm-1410 -34l1382 0c57,-30 78,-85 41,-180 -41,-104 -107,-202 -185,-279l-129 -103c11,-45 152,-245 152,-290 0,-40 -37,-51 -73,-51 -41,0 -172,259 -189,290 -74,-35 -195,-65 -304,-65l0 0 -5 0 -5 0 0 0c-109,0 -231,30 -304,65 -16,-31 -148,-290 -189,-290 -35,0 -73,11 -73,51 0,45 142,245 152,290l-129 103c-78,77 -145,175 -185,279 -37,95 -16,150 41,180zm1060 -471c-54,0 -98,44 -98,98 0,54 44,98 98,98 54,0 98,-44 98,-98 0,-54 -44,-98 -98,-98zm833 845l0 560c0,88 -87,155 -168,157 -83,2 -173,-71 -173,-157l0 -704c0,-41 28,-90 50,-110 125,-113 291,58 291,254zm-1572 -845c54,0 98,44 98,98 0,54 -44,98 -98,98 -54,0 -98,-44 -98,-98 0,-54 44,-98 98,-98zm-833 845l0 560c0,88 87,155 168,157 83,2 173,-71 173,-157l0 -704c0,-41 -28,-90 -50,-110 -125,-113 -291,58 -291,254z"/></g></svg>